<?xml version="1.0" standalone="no"?>
<!DOCTYPE svg PUBLIC "-//W3C//DTD SVG 20010904//EN"
 "http://www.w3.org/TR/2001/REC-SVG-20010904/DTD/svg10.dtd">
<svg version="1.0" xmlns="http://www.w3.org/2000/svg"
 width="1024.000000pt" height="1024.000000pt" viewBox="0 0 1024.000000 1024.000000"
 preserveAspectRatio="xMidYMid meet">

<g transform="translate(0.000000,1024.000000) scale(0.100000,-0.100000)"
fill="#000000" stroke="none">
<path d="M0 9650 c0 -324 2 -590 5 -590 2 0 21 12 42 26 21 14 78 46 128 71
50 25 137 73 195 107 58 35 166 99 241 143 132 79 214 113 271 113 37 0 90
-28 155 -82 29 -24 75 -61 102 -83 27 -22 53 -49 58 -60 6 -13 2 -66 -11 -152
-17 -110 -25 -135 -42 -147 -12 -9 -24 -12 -28 -9 -3 3 -6 0 -6 -8 -1 -10 -4
-9 -11 4 -14 23 -14 80 -1 147 34 175 21 204 -37 83 -23 -48 -53 -108 -67
-133 -22 -40 -24 -53 -19 -111 5 -49 3 -68 -7 -77 -8 -6 -79 -48 -159 -94
-132 -76 -294 -175 -517 -318 -48 -31 -133 -83 -190 -115 l-102 -60 1 -4100 0
-4100 36 90 c56 143 64 198 61 438 l-3 212 34 78 c96 223 254 362 487 429 122
35 271 32 388 -6 161 -53 295 -164 370 -306 76 -146 126 -340 126 -489 -1
-160 -31 -255 -145 -456 -24 -44 -45 -83 -45 -88 0 -4 79 -6 175 -5 l176 3 44
103 c92 212 97 239 105 497 6 212 9 235 32 297 70 186 192 313 389 407 204 98
409 94 610 -10 221 -115 354 -362 366 -682 8 -196 -26 -321 -131 -482 -54 -82
-76 -119 -76 -129 0 -3 95 -6 210 -6 133 0 210 4 210 10 0 5 22 71 50 145 27
74 55 154 61 177 6 24 14 142 18 263 7 216 8 221 40 302 58 147 139 249 276
348 153 110 409 166 556 121 148 -45 314 -170 393 -295 15 -23 47 -103 72
-176 38 -115 46 -151 54 -265 8 -94 7 -150 -1 -194 -17 -97 -66 -226 -108
-286 -36 -51 -81 -132 -81 -145 0 -3 1235 -5 2745 -5 l2745 0 0 3399 0 3400
-21 6 c-11 4 -23 5 -25 2 -3 -3 -6 -413 -7 -911 l-1 -906 -28 0 -28 0 2 875
c2 683 6 877 16 887 20 20 14 68 -12 99 -24 28 -24 29 -29 341 -4 300 -5 317
-31 408 -51 185 -140 329 -274 443 -84 71 -197 136 -296 169 -80 27 -110 31
-261 38 -93 5 -246 10 -340 11 -190 3 -182 5 -299 -77 -60 -41 -82 -61 -74
-65 2 -1 197 -5 433 -9 397 -7 436 -9 510 -29 110 -30 174 -70 286 -181 79
-79 103 -110 137 -180 53 -107 79 -211 92 -370 8 -87 10 -1095 8 -3300 -4
-3572 4 -3235 -80 -3410 -65 -135 -220 -279 -357 -331 -141 -53 -71 -51 -1786
-46 -1469 4 -1595 5 -1650 21 -191 56 -409 248 -440 391 -4 17 -18 63 -32 104
-19 59 -27 108 -34 235 -6 92 -9 905 -8 1906 0 960 -3 1760 -8 1778 l-8 34
-50 -36 c-28 -20 -63 -43 -80 -52 -16 -9 -82 -54 -145 -99 -63 -45 -161 -113
-218 -149 -57 -37 -101 -73 -99 -79 3 -11 -15 -37 -27 -37 -3 0 -6 7 -6 15 0
20 -1 20 -67 -20 -32 -19 -63 -35 -69 -35 -6 0 -18 -8 -28 -18 -15 -17 -15
-50 -7 -398 13 -544 9 -1154 -8 -1226 -18 -76 -83 -204 -102 -200 -8 2 -11 1
-7 -3 15 -16 -59 -110 -136 -172 -111 -90 -261 -156 -347 -152 -55 2 -159 -13
-153 -22 7 -12 -2787 -6 -2841 5 -69 14 -191 61 -251 97 -69 41 -177 141 -245
225 -64 81 -104 168 -130 285 -20 93 -21 109 -24 2304 -1 1240 1 2251 6 2303
14 142 80 303 173 417 118 146 247 231 420 275 78 20 106 20 1535 20 1440 0
1457 0 1531 -21 102 -28 205 -79 291 -143 132 -100 210 -209 260 -365 26 -83
31 -117 39 -270 5 -106 5 -180 -1 -185 -21 -22 -153 74 -184 133 -7 15 -25 71
-39 125 -50 187 -138 308 -301 414 -142 93 -60 86 -1080 90 -495 1 -1129 -2
-1410 -6 -488 -9 -513 -10 -575 -32 -230 -78 -393 -274 -435 -525 -15 -90 -17
-232 -18 -1445 -2 -2520 0 -2820 12 -2899 23 -146 101 -293 209 -393 73 -67
134 -100 246 -132 l88 -26 1328 0 c895 0 1354 4 1407 11 94 13 187 50 279 112
136 91 193 175 238 348 24 93 24 98 30 726 3 348 3 633 0 633 -2 0 -44 -9 -92
-19 -231 -52 -240 -53 -329 -41 -46 6 -90 13 -98 16 -18 7 -20 63 -2 68 6 2
72 9 145 15 92 7 145 17 176 31 45 20 162 58 246 80 99 26 363 168 542 292
173 120 463 344 623 482 44 38 157 131 250 206 94 76 206 169 250 209 44 39
125 110 180 158 104 91 128 113 540 488 138 125 341 308 451 406 204 180 274
251 274 277 0 28 -48 87 -226 274 l-91 97 43 42 c55 54 71 97 83 231 19 196
65 255 236 303 161 45 416 204 599 372 70 64 264 223 371 303 33 25 111 93
173 153 63 59 128 115 145 123 37 20 78 15 202 -22 195 -58 288 -33 435 115
117 119 192 270 221 446 44 274 -74 582 -285 742 -81 61 -228 130 -318 149
-102 22 -324 14 -428 -16 -174 -49 -362 -125 -455 -185 -103 -66 -554 -439
-905 -750 -112 -99 -270 -236 -669 -578 -122 -105 -183 -147 -216 -147 -41 0
-126 -58 -213 -146 -102 -103 -134 -159 -130 -224 2 -33 -2 -43 -23 -57 -13
-9 -94 -85 -179 -168 -85 -84 -193 -181 -240 -216 -47 -34 -136 -108 -198
-164 -150 -134 -209 -184 -333 -286 -57 -47 -135 -114 -174 -149 -255 -228
-337 -302 -473 -426 -209 -190 -294 -266 -457 -406 -265 -227 -561 -497 -879
-802 -104 -99 -214 -203 -245 -230 -31 -27 -101 -91 -155 -143 -55 -51 -101
-91 -104 -89 -6 6 99 166 161 246 28 36 107 124 176 197 69 73 131 144 139
158 12 24 11 28 -18 55 -17 16 -48 34 -68 40 -36 10 -38 9 -67 -27 -126 -157
-441 -513 -640 -723 -103 -109 -298 -324 -395 -435 -105 -121 -410 -451 -604
-652 l-60 -63 24 -25 c54 -57 391 -255 435 -255 17 0 298 298 528 559 99 113
200 226 224 251 23 25 56 64 73 87 32 43 62 58 90 43 44 -24 41 -33 -39 -121
-43 -47 -106 -124 -141 -170 -81 -107 -154 -190 -365 -421 -173 -189 -240
-267 -234 -272 18 -15 201 -49 309 -58 185 -16 200 -12 241 60 39 70 76 119
149 197 31 33 110 125 176 205 171 205 392 440 414 440 10 0 22 -4 25 -10 3
-5 15 -10 26 -10 10 0 19 -3 19 -6 0 -9 -89 -112 -198 -228 -51 -54 -91 -101
-89 -102 2 -2 52 15 113 37 60 23 141 52 179 66 132 49 233 102 264 140 28 34
32 36 78 30 116 -14 122 -28 69 -166 -66 -170 -105 -236 -220 -371 -313 -368
-962 -557 -1479 -431 -148 36 -318 97 -431 153 -399 200 -681 540 -763 918
-30 141 -42 424 -24 563 36 266 152 495 449 885 86 111 168 259 202 362 47
144 53 194 59 500 7 314 7 312 66 447 37 82 121 207 175 257 90 84 268 189
392 230 151 50 355 69 498 45 87 -14 249 -101 354 -191 177 -151 272 -289 389
-563 64 -150 66 -160 113 -465 54 -357 64 -398 111 -452 15 -16 17 -16 44 5
15 12 46 49 67 83 27 42 57 72 98 99 58 38 254 216 282 256 8 12 11 24 6 28
-34 24 -38 65 -42 407 -3 289 -1 346 12 377 16 40 24 44 47 25 58 -48 110
-151 128 -254 16 -91 17 -420 1 -439 -7 -9 -10 -18 -7 -22 4 -3 110 98 236
225 127 127 252 245 278 263 26 18 64 47 83 65 86 81 213 186 302 252 123 93
162 135 153 171 -16 63 -6 245 19 344 32 126 72 194 165 287 83 81 256 204
336 238 108 45 273 53 311 15 11 -11 20 -13 28 -7 7 5 61 46 120 90 59 45 147
102 194 128 48 25 115 67 148 93 59 46 105 85 502 428 242 209 285 246 477
405 39 32 139 116 224 187 388 322 440 361 556 420 70 36 270 110 375 140 30
8 87 19 125 23 39 4 -1976 8 -4477 9 l-4548 1 0 -590z m6499 445 c3 -3 7 -34
9 -69 l4 -64 44 -5 c66 -7 160 -58 234 -126 63 -57 64 -60 45 -74 -11 -8 -38
-29 -59 -46 l-40 -32 -50 50 c-44 43 -141 101 -171 101 -6 0 -11 -64 -13 -165
l-3 -164 28 -6 c141 -30 184 -48 243 -101 185 -167 72 -446 -202 -497 l-57
-10 -3 -71 -3 -71 -57 -3 -56 -3 -7 75 -7 75 -55 11 c-99 21 -245 115 -278
181 -17 32 -20 75 -6 83 5 4 29 9 54 12 43 6 46 5 87 -40 42 -45 122 -91 180
-103 l30 -6 -2 168 -3 168 -63 13 c-210 43 -321 196 -267 368 33 104 141 192
269 218 l56 11 0 41 c0 60 9 84 34 89 23 5 76 0 85 -8z m-2389 -47 c67 -13 93
-25 193 -91 70 -47 77 -54 77 -85 0 -52 -19 -171 -37 -235 -21 -73 -11 -122
52 -250 45 -93 54 -121 60 -192 2 -22 7 -51 10 -65 4 -14 -52 93 -124 237
l-131 261 -82 77 c-104 96 -199 160 -294 197 -139 54 -183 49 -349 -34 -103
-52 -137 -72 -328 -196 -111 -71 -152 -91 -234 -112 -68 -17 -228 -150 -270
-224 -19 -33 -15 -64 10 -81 27 -17 42 -14 174 39 50 20 100 36 112 36 13 0
48 28 93 74 108 109 143 128 361 190 81 24 91 25 117 11 38 -20 80 -92 82
-140 1 -33 -4 -43 -39 -74 -109 -96 -116 -100 -88 -51 19 33 19 90 -1 118 -22
32 -67 52 -114 52 -82 0 -144 -44 -232 -163 -47 -63 -53 -77 -53 -119 0 -42
-3 -48 -21 -48 -15 0 -24 12 -38 49 -9 27 -28 59 -42 72 -21 20 -26 21 -37 7
-6 -9 -44 -34 -83 -56 -78 -45 -102 -68 -88 -82 13 -13 125 -40 181 -44 26 -1
66 -10 88 -20 61 -26 113 -35 197 -36 79 0 128 -14 128 -36 0 -24 -84 -43
-225 -50 -255 -15 -245 -16 -370 51 -60 32 -126 73 -146 91 -48 42 -97 53
-117 28 -13 -17 -14 -15 -8 26 11 74 44 162 81 212 46 62 117 115 245 180 58
29 132 70 165 91 33 21 101 62 150 91 50 28 154 89 233 135 188 110 261 140
334 141 127 0 273 -77 429 -227 53 -51 101 -93 107 -93 16 0 20 10 32 86 l11
69 -37 32 c-80 70 -215 124 -382 154 -4 1 7 5 23 9 35 9 145 3 225 -12z m5250
-89 c109 -29 185 -73 270 -159 122 -121 170 -252 170 -457 0 -124 -20 -219
-65 -309 -41 -84 -136 -191 -199 -225 -42 -22 -48 -22 -78 -10 -201 84 -319
98 -418 49 -30 -16 -71 -43 -91 -60 -20 -18 -76 -69 -125 -113 -202 -183 -740
-616 -842 -677 -42 -26 -115 -61 -162 -78 -153 -55 -222 -94 -290 -166 l-61
-66 -26 23 c-39 37 -47 58 -26 66 10 4 41 25 68 49 55 46 179 124 197 124 6 0
30 9 52 19 23 10 58 24 78 31 20 6 42 18 48 26 7 7 21 14 30 14 10 0 32 11 48
25 17 14 34 25 40 25 6 0 30 16 54 35 23 19 62 49 86 67 23 18 65 51 91 73 27
22 66 54 87 70 20 17 53 44 73 60 81 69 197 162 212 171 9 5 72 62 140 128
119 114 230 206 248 206 4 0 24 11 43 24 19 13 52 26 72 30 20 3 52 9 72 12
44 8 131 -9 252 -48 l94 -31 26 20 c49 36 120 141 153 225 30 75 33 95 37 208
3 106 1 134 -16 185 -35 102 -68 152 -110 166 -49 16 -92 49 -92 70 0 13 -8
16 -32 14 -40 -3 -98 12 -120 32 -9 8 -21 12 -27 9 -5 -4 -12 -2 -16 4 -8 13
-72 13 -77 0 -2 -7 -19 -5 -47 5 -54 19 -57 19 -40 -1 8 -9 33 -25 56 -35 55
-23 55 -39 0 -39 -39 0 -44 3 -54 31 -11 27 -15 30 -28 19 -9 -7 -15 -8 -15
-2 0 5 -13 15 -30 21 -39 13 -38 16 7 19 54 4 54 12 0 12 -26 0 -47 -2 -47 -5
0 -8 37 -76 56 -102 30 -41 -5 -34 -50 10 -44 43 -101 73 -110 58 -3 -4 16
-33 41 -65 33 -43 42 -61 34 -69 -8 -8 -27 4 -69 48 -78 79 -129 84 -82 8 11
-18 17 -40 14 -48 -5 -12 -13 -9 -41 15 -57 50 -97 23 -51 -35 52 -66 18 -84
-48 -26 -26 23 -51 41 -55 41 -16 0 -9 -37 12 -63 49 -64 21 -90 -41 -39 -74
60 -88 41 -31 -44 41 -59 19 -71 -42 -22 -59 48 -63 49 -65 25 -1 -12 14 -42
33 -66 58 -73 45 -81 -35 -21 -56 42 -77 46 -72 15 5 -27 51 -83 73 -90 23 -8
25 -21 2 -29 -10 -4 -26 2 -42 17 -14 14 -44 36 -67 50 -37 23 -40 23 -39 6 1
-10 17 -38 37 -61 20 -24 34 -46 32 -50 -7 -11 -75 25 -98 51 -11 12 -25 21
-33 21 -28 0 -10 -37 47 -100 63 -68 64 -94 2 -41 -20 17 -58 42 -83 55 l-46
25 4 -23 c3 -13 18 -38 34 -57 17 -19 39 -46 50 -61 19 -27 19 -28 2 -28 -10
0 -41 20 -70 45 -49 43 -76 54 -87 37 -3 -5 15 -35 39 -67 24 -32 41 -65 38
-73 -4 -10 -13 -5 -32 19 -55 71 -77 83 -100 55 -9 -10 -1 -27 34 -75 35 -48
41 -61 27 -61 -9 0 -37 25 -60 55 -47 59 -56 64 -71 38 -6 -12 -4 -28 10 -55
19 -38 19 -38 0 -38 -12 0 -23 9 -27 23 -7 22 -44 61 -51 53 -12 -12 -8 -45 8
-77 10 -20 16 -39 13 -42 -9 -9 -37 4 -66 31 -16 14 -28 24 -29 21 0 -2 -2
-13 -4 -23 -2 -11 -33 -49 -68 -85 -36 -36 -70 -77 -77 -90 -12 -24 -31 -25
-85 -5 -16 6 -14 1 9 -24 17 -18 35 -32 40 -32 14 0 61 -68 53 -76 -5 -6 -31
20 -61 61 -12 17 -16 17 -30 6 -13 -11 -20 -11 -28 -3 -7 7 -18 12 -24 12 -13
0 -44 -27 -44 -38 0 -4 24 -22 53 -40 29 -18 59 -42 65 -53 8 -13 -4 -8 -36
15 -26 19 -61 37 -77 40 -16 3 -33 13 -38 21 -12 23 -37 1 -29 -27 4 -17 2
-20 -13 -14 -15 5 -16 4 -5 -9 7 -9 19 -14 27 -11 8 3 11 1 8 -4 -3 -6 0 -10
7 -10 16 0 94 -77 87 -84 -3 -3 -32 11 -64 31 -33 20 -75 42 -93 50 -28 12
-33 12 -38 -2 -4 -10 15 -40 55 -84 33 -38 61 -72 61 -76 0 -10 -43 17 -71 44
-35 35 -110 74 -121 63 -5 -5 -2 -14 7 -22 8 -7 15 -17 15 -22 0 -5 16 -30 36
-56 21 -27 31 -48 24 -50 -15 -5 -53 35 -45 48 4 6 3 9 -2 8 -4 -1 -21 6 -36
16 -26 18 -29 18 -44 3 -15 -15 -15 -18 10 -41 32 -30 35 -41 7 -24 -11 7 -20
16 -20 20 0 15 -18 8 -47 -16 -16 -14 -38 -24 -49 -23 -16 2 -19 -4 -16 -32 3
-38 -13 -54 -39 -40 -28 14 -59 11 -53 -5 3 -8 -2 -29 -12 -45 -18 -31 -46
-49 -51 -34 -11 31 -22 37 -47 25 -35 -16 -33 -37 11 -85 22 -25 32 -42 24
-45 -14 -5 -52 24 -135 99 l-58 54 148 125 c81 69 193 166 248 215 56 50 157
137 226 194 69 58 161 137 205 176 44 39 148 127 230 195 83 68 179 149 215
180 479 413 495 424 715 503 133 48 175 58 270 67 105 9 193 3 285 -21z
m-5431 -223 c95 -55 181 -149 233 -256 69 -141 163 -347 187 -413 36 -98 23
-136 -46 -137 -34 0 -37 9 -18 53 4 11 0 36 -13 65 -11 26 -23 62 -27 81 -4
18 -15 48 -25 65 -10 17 -24 50 -31 74 -21 72 -26 72 -156 -5 -65 -39 -138
-81 -163 -95 -25 -14 -119 -70 -210 -125 -223 -136 -384 -222 -532 -283 -68
-28 -152 -64 -188 -80 -86 -38 -139 -49 -233 -50 -71 0 -80 2 -101 25 -13 14
-26 36 -28 49 -5 23 -4 23 114 29 105 5 134 11 241 48 141 48 326 135 412 193
33 22 89 55 125 73 36 18 119 69 185 113 66 43 154 98 195 122 98 56 227 154
235 178 3 11 -1 35 -11 55 -15 32 -25 40 -48 36 -4 -1 -27 16 -51 38 -24 22
-62 45 -84 51 -23 6 -42 16 -43 23 0 7 -2 17 -3 22 -2 6 -3 15 -4 20 0 6 -15
19 -32 29 -23 14 -28 21 -19 31 17 20 76 8 139 -29z m676 -106 c17 -33 19 -44
6 -36 -10 6 -33 66 -26 66 3 0 11 -13 20 -30z m4646 -21 c67 -23 129 -106 129
-174 0 -53 -34 -112 -79 -134 -42 -22 -113 -27 -154 -12 -38 15 -85 68 -98
112 -23 74 25 163 106 200 48 22 52 22 96 8z m-5566 -134 c-31 -26 -45 -31
-45 -17 0 9 51 42 65 41 6 0 -3 -11 -20 -24z m-390 -155 l29 -19 -24 -9 c-50
-19 -74 10 -53 64 6 16 7 16 12 0 4 -9 20 -25 36 -36z m1295 -130 c6 -11 8
-20 6 -20 -3 0 -10 9 -16 20 -6 11 -8 20 -6 20 3 0 10 -9 16 -20z m-2079 -226
c53 -39 64 -41 166 -29 43 5 72 4 93 -5 37 -15 38 -23 3 -39 -39 -18 -301 -35
-319 -21 -11 10 -34 91 -34 120 0 21 42 8 91 -26z m5369 0 c0 -8 -5 -12 -10
-9 -6 4 -8 11 -5 16 9 14 15 11 15 -7z m-7 -47 c-7 -11 -23 2 -23 19 0 12 2
12 14 2 8 -7 12 -16 9 -21z m287 -19 c25 -13 55 -39 68 -58 33 -49 28 -146 -8
-186 -37 -39 -73 -54 -129 -54 -42 0 -56 5 -86 31 -67 59 -81 118 -46 194 21
47 38 63 88 81 52 18 62 17 113 -8z m-1357 -710 c61 -57 132 -123 157 -148 25
-25 141 -143 258 -261 l214 -216 -15 -109 -15 -109 -44 -37 c-24 -21 -46 -38
-50 -38 -24 0 -828 788 -828 812 0 13 194 208 207 208 3 0 55 -46 116 -102z
m297 83 c0 -6 -4 -13 -10 -16 -5 -3 -10 1 -10 9 0 9 5 16 10 16 6 0 10 -4 10
-9z m33 -34 c4 3 7 1 7 -5 0 -18 -27 -14 -34 4 -5 13 -4 14 7 6 8 -7 17 -9 20
-5z m-298 -723 c154 -155 300 -296 325 -313 25 -17 129 -111 231 -209 l187
-177 -37 -39 c-20 -21 -99 -91 -177 -156 -77 -65 -177 -151 -221 -191 -77 -72
-184 -169 -471 -427 -286 -257 -533 -470 -701 -605 -50 -39 -190 -153 -311
-252 -378 -308 -624 -485 -803 -580 -125 -66 -182 -86 -354 -126 -208 -47
-444 -63 -588 -39 -33 6 -161 22 -285 35 -209 24 -439 68 -493 96 -12 6 -29
20 -37 31 -9 10 -31 21 -50 24 -19 2 -62 11 -95 19 -33 8 -77 17 -97 20 -49 8
-49 27 -1 59 47 33 329 302 603 577 118 118 289 282 380 365 90 82 203 185
251 230 47 44 121 108 165 141 43 33 127 103 185 154 59 52 160 141 225 198
66 58 151 134 189 170 73 69 373 334 581 512 66 57 212 187 325 288 112 102
242 219 289 260 46 42 134 123 195 181 60 58 125 118 144 133 l33 28 67 -62
c36 -35 192 -190 346 -345z m-3217 77 c18 -11 14 -565 -5 -596 -10 -18 -17 -8
-64 89 l-53 109 -6 196 c-3 108 -4 199 -2 204 4 10 114 9 130 -2z m-2230 -9
c28 -18 32 -147 30 -824 l-3 -687 -55 -107 c-31 -59 -61 -109 -66 -111 -21 -7
-24 122 -24 896 0 605 3 782 13 801 7 15 25 28 42 31 44 10 49 10 63 1z m318
-37 c3 -25 3 -89 -1 -143 -7 -94 -9 -101 -70 -215 l-62 -118 -7 213 c-6 189
-4 251 10 296 2 8 24 12 63 12 l60 0 7 -45z m271 34 c25 -25 -19 -76 -89 -107
l-28 -12 0 65 0 65 53 0 c29 0 58 -5 64 -11z m1321 -1 c14 -14 16 -124 2 -133
-5 -3 -10 -2 -10 3 0 5 -18 21 -39 35 -38 26 -61 73 -46 97 9 14 78 13 93 -2z
m772 -27 c30 -16 95 -66 145 -112 87 -81 252 -280 277 -333 45 -100 -112 24
-362 284 -178 185 -182 190 -149 190 19 -1 59 -14 89 -29z m-257 10 c14 -6 33
-22 42 -38 9 -15 38 -40 65 -55 99 -55 109 -114 109 -643 1 -393 -6 -458 -50
-498 -34 -31 -52 -31 -57 1 -7 47 -22 18 -22 -42 0 -48 -5 -70 -19 -87 -11
-13 -22 -22 -25 -19 -10 11 -28 149 -22 173 4 19 12 25 28 23 l23 -3 3 539 c1
321 -1 537 -7 534 -18 -11 -39 -72 -46 -131 -4 -33 -10 -64 -14 -70 -3 -5 -7
-100 -8 -210 -1 -110 -5 -225 -9 -255 -4 -30 -8 -58 -8 -62 -3 -25 -17 -13
-28 23 -14 48 -16 183 -9 587 5 258 3 252 54 233z m-2689 -198 c-1 -65 -5
-480 -9 -923 l-6 -805 -26 -50 c-14 -27 -41 -80 -60 -117 -18 -38 -37 -68 -43
-68 -5 0 -12 19 -15 43 -3 23 -5 436 -3 917 l3 875 37 77 c20 42 55 97 78 122
24 25 43 46 45 46 1 0 1 -53 -1 -117z m3546 -394 c34 -33 104 -119 99 -123
-16 -14 -51 -26 -60 -20 -6 3 -13 -3 -16 -14 -12 -49 -83 -31 -83 21 0 18 -7
63 -15 101 -8 38 -12 73 -9 77 6 11 51 -12 84 -42z m5520 -2499 c0 -330 -2
-390 -14 -390 -8 0 -21 -3 -30 -6 -14 -6 -16 32 -16 383 0 214 3 393 7 396 3
4 17 7 30 7 l23 0 0 -390z m-4684 78 c4 -13 10 -867 14 -1898 5 -1414 9 -1886
19 -1920 62 -231 125 -336 265 -442 98 -73 170 -109 296 -144 l95 -27 1460 -4
c803 -1 1534 1 1625 6 135 7 180 14 250 36 210 67 338 162 445 330 43 66 64
121 100 262 34 128 35 168 45 1813 4 718 11 1315 15 1327 4 12 19 24 33 28 15
3 35 8 44 11 16 5 16 2 4 -33 -29 -82 -38 -271 -35 -688 2 -225 2 -849 1
-1385 -2 -1023 -3 -1047 -48 -1201 -29 -101 -111 -234 -199 -323 -116 -116
-288 -215 -430 -246 -71 -16 -3330 -16 -3400 0 -94 20 -150 43 -249 102 -132
78 -187 126 -263 228 -68 92 -115 196 -131 295 -13 73 -25 3511 -14 3721 5 94
12 147 21 158 18 22 27 20 37 -6z m-3607 -652 c10 -11 9 -24 0 -56 -15 -50
-30 -58 -64 -36 -28 18 -35 72 -13 94 16 16 63 15 77 -2z m2521 -651 c0 -235
-4 -414 -11 -449 -18 -102 -77 -198 -136 -222 -19 -8 -39 -12 -45 -8 -8 5 -9
87 -4 292 9 381 29 529 85 655 16 35 44 107 62 160 l34 97 7 -68 c4 -37 8
-242 8 -457z m-3439 408 c6 -32 39 -143 74 -248 l62 -190 7 -317 c6 -310 6
-318 -13 -318 -28 0 -97 83 -123 149 -21 54 -22 69 -26 519 -2 254 -2 462 1
462 3 0 11 -26 18 -57z m2747 -189 c2 -48 -2 -65 -28 -111 -17 -30 -29 -57
-27 -60 3 -2 24 9 48 26 23 17 46 31 51 31 22 0 3 -59 -43 -126 -28 -42 -49
-77 -47 -79 2 -2 21 0 43 5 67 16 78 14 64 -12 -20 -38 -120 -126 -209 -185
-95 -63 -222 -119 -309 -135 -63 -12 -108 -5 -81 12 8 6 12 10 7 10 -4 0 2 17
13 37 22 41 25 68 10 78 -5 3 -9 34 -9 68 1 34 -2 81 -6 103 l-7 42 83 31 c46
18 86 36 89 40 3 4 55 43 115 86 61 43 138 104 173 136 34 33 64 59 65 59 1 0
3 -25 5 -56z m309 -651 c-2 -159 -8 -298 -12 -311 -7 -21 -13 -23 -69 -20 -87
4 -92 15 -89 228 2 243 1 239 86 321 39 38 75 69 80 69 6 0 7 -112 4 -287z
m-2688 155 c55 -61 60 -84 61 -316 0 -210 2 -206 -86 -178 l-54 17 1 287 c0
273 1 286 17 262 9 -14 37 -46 61 -72z m1391 -81 c0 -121 -4 -177 -12 -185 -7
-7 -41 -12 -82 -12 l-71 0 -1 180 -1 179 56 4 c31 2 68 4 84 5 l27 2 0 -173z
m-1101 -119 c31 -17 59 -36 63 -42 4 -6 8 -58 8 -115 0 -124 -9 -141 -76 -141
-49 0 -57 10 -69 78 -7 43 3 252 12 252 3 0 31 -14 62 -32z m1989 -115 c1 -66
-2 -132 -8 -147 -9 -26 -13 -27 -67 -24 l-58 3 -3 60 c-2 33 -1 83 3 111 6 49
9 54 58 87 29 20 57 34 62 33 6 -2 11 -54 13 -123z m-1702 -9 c62 -25 74 -41
74 -95 0 -74 -5 -79 -66 -79 -43 0 -56 4 -68 22 -20 28 -22 154 -3 161 19 8
22 8 63 -9z m1338 -33 c4 -5 9 -31 13 -57 8 -59 -9 -74 -83 -74 -57 0 -63 4
-74 56 -6 25 -4 36 9 47 33 30 123 48 135 28z m-319 -111 l0 -25 -300 -3
c-165 -1 -306 0 -314 3 -11 4 -10 10 5 26 17 20 26 21 99 14 89 -8 161 -7 310
5 55 4 123 7 150 6 46 -1 50 -3 50 -26z"/>
<path d="M6315 9811 c-46 -20 -92 -70 -101 -107 -10 -41 3 -104 27 -130 20
-21 113 -64 139 -64 11 0 13 150 3 253 -3 39 -11 67 -17 67 -6 0 -29 -9 -51
-19z"/>
<path d="M6502 9211 c-4 -158 0 -181 31 -181 36 1 120 52 145 90 31 45 27 118
-8 155 -25 26 -88 59 -135 69 l-30 6 -3 -139z"/>
<path d="M9325 9851 c11 -5 36 -11 55 -15 l35 -6 -30 15 c-16 8 -41 14 -55 14
-23 0 -23 -1 -5 -8z"/>
<path d="M8006 9144 c-5 -14 -4 -15 9 -4 17 14 19 20 6 20 -5 0 -12 -7 -15
-16z"/>
<path d="M7926 9032 c10 -18 20 -28 23 -21 2 6 -7 21 -19 33 l-23 21 19 -33z"/>
<path d="M7725 8890 c-10 -11 -13 -20 -8 -20 13 0 38 29 31 35 -3 3 -13 -4
-23 -15z"/>
<path d="M6845 7891 l-30 -6 82 -90 c128 -143 421 -427 435 -423 18 6 26 49
15 88 -7 27 -50 76 -180 203 -95 93 -186 180 -203 193 -39 30 -79 42 -119 35z"/>
<path d="M6837 7072 c-10 -10 -17 -23 -17 -28 0 -5 39 -48 86 -94 47 -47 126
-134 176 -193 86 -102 91 -107 112 -94 33 22 30 40 -18 103 -56 74 -297 325
-312 324 -6 0 -18 -8 -27 -18z"/>
<path d="M6545 6850 c-17 -18 -16 -21 9 -65 15 -25 55 -76 88 -113 88 -96 261
-261 274 -262 6 0 19 9 28 19 25 28 14 44 -143 207 -75 77 -155 162 -178 187
-23 26 -46 47 -51 47 -5 0 -17 -9 -27 -20z"/>
<path d="M6417 6752 c-10 -10 -17 -22 -17 -27 0 -4 42 -51 94 -104 52 -53 127
-134 166 -181 40 -47 87 -100 105 -118 l33 -32 31 35 c17 20 31 37 31 38 0 11
-402 407 -413 407 -8 0 -21 -8 -30 -18z"/>
<path d="M6671 6303 c0 -4 13 -18 30 -31 16 -13 29 -20 28 -15 0 4 -13 18 -30
31 -16 13 -29 20 -28 15z"/>
<path d="M5892 6223 l-33 -28 23 -30 c74 -97 159 -191 248 -273 100 -93 101
-94 125 -78 14 9 25 23 25 32 0 8 -57 74 -128 147 -70 73 -149 160 -176 195
-27 34 -50 62 -50 62 -1 0 -16 -12 -34 -27z"/>
<path d="M5766 6121 c-14 -15 -26 -31 -26 -35 0 -25 353 -386 377 -386 5 0 22
13 37 29 l29 30 -196 194 -195 195 -26 -27z"/>
<path d="M4274 5881 c-85 -39 -151 -131 -161 -226 -13 -129 70 -254 193 -290
179 -52 347 83 332 268 -16 190 -206 320 -364 248z"/>
<path d="M5020 5313 c1 -34 36 -82 140 -192 103 -107 107 -110 128 -95 12 8
22 20 22 26 0 14 -266 278 -280 278 -5 0 -10 -8 -10 -17z"/>
<path d="M4922 5268 c-27 -27 -11 -57 86 -160 53 -57 108 -121 122 -141 14
-20 28 -37 31 -37 14 0 59 42 59 55 0 8 -42 56 -93 107 -51 51 -110 114 -131
141 -40 49 -54 55 -74 35z"/>
<path d="M4815 5180 c-9 -30 15 -62 143 -195 93 -95 116 -114 128 -104 35 29
0 85 -139 227 -93 93 -120 108 -132 72z"/>
<path d="M4723 5120 c-13 -5 -23 -13 -23 -18 0 -17 61 -93 152 -190 50 -53 95
-101 99 -106 10 -12 49 21 49 41 0 26 -57 97 -153 191 -52 50 -96 92 -98 91
-2 0 -14 -4 -26 -9z"/>
<path d="M4692 4680 c7 -11 18 -20 25 -20 9 0 7 6 -4 20 -10 11 -21 20 -25 20
-5 0 -3 -9 4 -20z"/>
<path d="M3353 3125 c-63 -29 -73 -37 -73 -59 0 -21 5 -26 23 -26 44 0 136 81
125 110 -2 5 -36 -7 -75 -25z"/>
<path d="M3350 2981 c-59 -22 -76 -32 -78 -49 -5 -31 21 -38 76 -21 47 15 87
55 80 82 -2 13 -14 11 -78 -12z"/>
<path d="M9335 10225 c355 -67 632 -354 696 -719 15 -88 7 -312 -15 -391 -81
-295 -286 -526 -501 -566 -79 -15 -153 0 -253 52 -42 21 -84 39 -94 39 -10 0
-86 -64 -168 -142 l-150 -143 62 -6 c35 -4 122 -7 193 -8 295 -3 433 -28 575
-102 137 -72 288 -213 360 -334 124 -210 139 -285 147 -695 5 -245 8 -298 21
-312 8 -10 19 -18 24 -18 4 0 8 756 8 1680 l0 1680 -487 -1 c-435 -1 -480 -2
-418 -14z"/>
<path d="M787 9409 c-29 -4 -86 -29 -140 -60 -51 -28 -135 -75 -187 -104 -52
-28 -113 -63 -135 -78 -22 -14 -103 -59 -180 -99 l-140 -74 -3 -297 c-1 -163
0 -297 3 -297 2 0 65 39 139 88 74 48 182 116 240 152 471 289 489 305 536
491 12 46 33 98 46 116 13 18 27 45 30 61 5 25 1 33 -28 55 -58 44 -110 58
-181 46z m-229 -288 l21 -39 -25 -5 c-40 -7 -149 16 -149 32 0 14 82 50 116
51 10 0 26 -17 37 -39z"/>
<path d="M6185 8260 c-272 -24 -581 -287 -635 -540 -6 -30 -14 -103 -17 -162
l-6 -108 36 0 c41 0 43 3 56 107 19 148 170 366 316 455 85 52 198 92 259 93
l40 0 11 60 c6 33 17 70 23 83 7 12 9 21 5 20 -4 0 -44 -4 -88 -8z"/>
<path d="M6009 7912 c-80 -53 -100 -70 -148 -132 -42 -53 -87 -137 -78 -146 2
-2 50 47 105 110 56 62 122 130 147 150 41 34 57 57 38 55 -5 0 -33 -17 -64
-37z"/>
<path d="M8268 7907 c-15 -7 -49 -38 -76 -69 -98 -112 -117 -122 -347 -188
-162 -47 -177 -65 -194 -241 -11 -120 -32 -199 -57 -220 -23 -19 -17 -29 45
-86 61 -54 203 -239 221 -287 7 -20 6 -34 -4 -54 -20 -39 -144 -161 -350 -346
-100 -88 -217 -195 -261 -237 -44 -41 -125 -115 -180 -164 -55 -49 -152 -141
-216 -205 -63 -63 -157 -151 -208 -195 -52 -44 -114 -98 -140 -121 -75 -65
-213 -179 -421 -345 -107 -86 -226 -185 -265 -221 l-70 -66 4 -1972 c3 -1847
4 -1977 21 -2024 23 -68 82 -182 117 -228 55 -73 196 -161 293 -183 52 -12
3151 -15 3230 -4 92 14 199 67 270 135 76 72 115 134 149 232 l26 77 3 3225
c2 2080 -1 3252 -7 3300 -14 102 -44 196 -83 255 -76 116 -203 210 -316 234
-77 16 -1147 14 -1184 -2z m310 -159 c5 -25 -46 -77 -89 -89 -45 -14 -330 4
-377 23 -15 6 -30 11 -34 10 -5 -1 -8 2 -8 7 0 26 72 40 269 50 113 6 207 13
210 16 9 9 26 -1 29 -17z m971 -214 c36 -26 54 -77 41 -123 -5 -21 -18 -45
-29 -55 -41 -37 -146 -32 -187 9 -20 20 -24 34 -24 80 0 46 4 60 25 80 20 21
34 25 87 25 43 0 71 -5 87 -16z m-305 -16 c19 -26 21 -115 5 -152 -20 -43
-127 -48 -149 -6 -13 24 -13 121 0 154 9 24 14 26 69 26 51 0 62 -3 75 -22z
m-130 -444 c3 -9 6 -35 6 -58 l0 -42 65 -11 c73 -13 133 -39 185 -82 l34 -29
-49 -45 c-50 -45 -50 -45 -71 -26 -21 20 -121 59 -149 59 -13 0 -15 -15 -13
-102 l3 -103 70 -18 c128 -33 198 -95 215 -189 15 -82 -40 -192 -120 -243 -23
-14 -70 -33 -105 -43 l-64 -16 -3 -65 -3 -65 -50 3 c-27 1 -52 5 -55 8 -2 2
-4 30 -3 61 l1 57 -67 16 c-94 23 -241 94 -241 117 0 9 21 39 46 65 46 48 46
48 68 29 33 -30 159 -92 187 -92 6 0 8 52 7 128 l-3 127 -50 6 c-93 12 -175
62 -211 131 -16 31 -19 124 -4 162 14 38 79 105 123 128 22 11 63 22 91 25
l51 5 -4 44 c-5 66 1 74 58 74 35 0 51 -4 55 -16z m-1344 -796 c0 -12 -38 -10
-45 2 -12 19 5 30 25 17 11 -6 20 -15 20 -19z m20 -37 c0 -11 -4 -23 -10 -26
-6 -4 -10 5 -10 19 0 14 5 26 10 26 6 0 10 -9 10 -19z m-140 -411 c10 -7 -22
-9 -100 -9 -73 1 -106 4 -90 9 36 11 172 11 190 0z m793 -12 c-2 -5 -3 -15 -3
-23 0 -12 -18 -15 -106 -15 -73 0 -103 3 -98 11 3 6 14 9 24 6 9 -2 33 5 53
17 28 18 46 21 84 17 26 -4 47 -9 46 -13z m225 15 c-26 -2 -71 -2 -100 0 -29
2 -8 3 47 3 55 0 79 -1 53 -3z m1002 -10 c0 -22 -11 -37 -29 -41 -12 -3 -12 0
-2 12 7 8 10 19 7 24 -3 5 -67 10 -143 11 -75 1 -139 4 -142 6 -2 3 66 5 152
5 143 0 157 -2 157 -17z m-2040 -23 c-21 -4 49 -9 170 -10 l205 -3 -224 -7
c-123 -4 -251 -4 -285 0 -33 4 -51 8 -38 9 12 0 22 6 22 11 0 6 37 9 93 9 67
-1 82 -4 57 -9z m865 -158 c3 -13 5 -93 4 -178 l-1 -154 -24 0 -24 0 0 190 c0
186 0 190 19 178 11 -7 23 -23 26 -36z m-964 -28 c47 -24 35 -50 -21 -46 -63
4 -77 -3 -55 -28 10 -11 24 -20 32 -20 25 0 71 -29 78 -49 13 -43 -45 -101
-103 -101 -21 0 -82 45 -82 61 0 5 26 8 58 6 31 -1 59 3 62 8 2 6 -17 20 -42
32 -29 14 -53 34 -63 52 -20 39 -20 38 16 72 35 33 74 37 120 13z m218 -10
c12 -15 21 -32 21 -38 0 -6 16 -44 35 -85 19 -40 35 -79 35 -87 0 -22 -41 -17
-47 6 -5 18 -14 20 -74 20 -53 0 -69 -3 -69 -14 0 -19 -39 -31 -53 -17 -8 8
-7 19 6 39 24 37 83 156 90 182 7 28 31 25 56 -6z m484 3 c4 -7 6 -36 4 -66
-5 -66 -24 -85 -79 -76 l-38 7 0 -41 c0 -45 -19 -62 -45 -41 -12 10 -15 37
-15 120 0 58 3 110 8 114 11 12 155 -3 165 -17z m-268 -19 c-10 -47 -11 -127
-1 -171 l8 -38 -43 3 -44 3 -5 75 c-3 50 -11 84 -24 103 -27 40 -9 57 61 57
l55 0 -7 -32z m1229 7 c33 -31 34 -55 1 -55 -16 0 -25 6 -25 16 0 11 -8 14
-27 12 -46 -5 -37 -26 26 -58 51 -25 61 -35 61 -56 0 -14 -11 -36 -25 -49 -31
-32 -96 -34 -125 -5 -34 34 -25 43 35 35 63 -7 73 6 24 33 -47 25 -89 62 -89
77 0 7 12 27 26 44 33 40 79 42 118 6z m146 -23 c0 -27 2 -51 4 -53 3 -3 23
-3 45 -1 39 4 41 6 41 36 0 33 15 56 37 56 10 0 13 -26 13 -110 0 -103 -1
-110 -20 -110 -17 0 -20 7 -20 40 l0 40 -55 0 -55 0 7 -45 c6 -44 0 -53 -23
-37 -19 12 -25 61 -18 148 6 73 9 84 25 84 16 0 19 -8 19 -48z m-427 7 c23
-17 27 -28 27 -73 0 -87 -56 -139 -126 -116 -44 15 -43 30 1 30 24 0 38 5 42
17 4 9 2 18 -5 21 -35 11 -77 50 -80 74 -7 58 88 89 141 47z m-1768 -269 c3
-5 -1 -10 -9 -10 -9 0 -16 5 -16 10 0 6 4 10 9 10 6 0 13 -4 16 -10z m45 -81
c0 -7 -27 -9 -87 -4 -49 4 -90 9 -92 11 -2 2 37 4 87 4 60 0 92 -4 92 -11z
m1198 4 c-15 -2 -42 -2 -60 0 -18 2 -6 4 27 4 33 0 48 -2 33 -4z m1075 0 c-35
-2 -91 -2 -125 0 -35 2 -7 3 62 3 69 0 97 -1 63 -3z m-2474 -217 c37 -20 89
-79 98 -114 4 -15 8 -171 8 -347 0 -344 -3 -367 -52 -426 -14 -16 -43 -39 -64
-50 -37 -18 -62 -20 -459 -21 l-421 -1 -37 30 c-20 16 -48 50 -62 74 l-25 44
0 363 0 363 52 50 52 49 441 0 c365 0 446 -2 469 -14z m1302 -18 c82 -59 80
-46 77 -453 l-3 -360 -28 -41 c-15 -22 -45 -50 -66 -62 -37 -21 -47 -22 -470
-22 -424 -1 -432 0 -461 20 -42 30 -76 78 -89 125 -7 25 -11 161 -11 365 0
371 0 372 82 426 l47 32 441 -1 441 0 40 -29z m1270 9 c24 -12 57 -39 73 -60
l31 -39 0 -341 0 -342 -28 -58 c-19 -38 -42 -67 -66 -83 l-38 -25 -448 -1
-448 -2 -46 50 c-73 79 -74 90 -72 469 l2 330 27 39 c15 22 46 49 68 61 41 22
50 22 472 23 424 1 431 0 473 -21z m-1491 -1097 l177 0 47 -31 c78 -52 76 -43
76 -433 0 -357 -2 -381 -43 -424 -52 -56 -47 -55 -520 -60 l-439 -4 -38 26
c-20 13 -48 42 -61 63 -24 38 -24 39 -27 391 -3 341 -2 354 17 386 19 30 74
75 111 90 8 3 129 4 269 1 140 -3 334 -5 431 -5z m1517 -32 c24 -16 49 -44 62
-70 20 -42 21 -59 21 -359 0 -253 -3 -322 -15 -357 -22 -62 -43 -91 -84 -112
-33 -17 -73 -18 -484 -21 l-448 -3 -45 39 c-70 62 -76 89 -80 371 -1 132 1
286 5 342 7 88 11 106 32 128 41 44 81 68 123 74 22 3 228 3 457 0 l416 -5 40
-27z m-2598 18 c15 -8 44 -33 64 -55 l37 -41 0 -343 c0 -311 -2 -346 -19 -382
-10 -22 -29 -50 -42 -62 -53 -49 -67 -50 -515 -52 l-420 -3 -52 47 c-34 30
-55 59 -62 83 -6 22 -10 172 -10 365 0 351 1 357 52 403 59 54 51 53 511 54
353 0 433 -3 456 -14z m-22 -1092 c29 -6 90 -59 108 -94 11 -22 15 -96 16
-361 2 -361 0 -374 -53 -431 -56 -59 -49 -58 -514 -58 -405 0 -428 1 -458 19
-37 24 -68 64 -84 110 -8 23 -12 137 -12 363 0 362 0 361 62 413 61 52 59 52
501 48 226 -2 422 -6 434 -9z m1310 -21 c24 -13 54 -40 68 -61 l25 -37 0 -338
c0 -356 -2 -371 -48 -424 -10 -12 -34 -31 -53 -42 -33 -20 -46 -21 -470 -21
l-435 0 -42 36 c-78 67 -77 57 -80 438 -4 372 -3 375 56 427 67 59 58 58 517
52 l420 -5 42 -25z m1284 4 c27 -14 57 -42 77 -72 l33 -49 -3 -337 -3 -337
-30 -44 c-17 -23 -49 -53 -71 -65 -40 -22 -45 -23 -472 -23 -359 -1 -436 2
-459 14 -42 22 -92 78 -103 117 -6 19 -10 178 -10 364 l0 331 25 35 c14 19 42
46 63 61 l37 27 436 1 436 0 44 -23z m-2582 -1091 c15 -8 46 -35 69 -60 l42
-46 0 -335 c0 -270 -3 -341 -14 -363 -16 -31 -71 -84 -102 -100 -13 -7 -166
-11 -441 -11 l-421 -1 -48 32 c-88 60 -89 64 -92 444 l-3 331 28 33 c15 18 45
46 67 61 l39 29 424 0 c347 0 429 -3 452 -14z m1969 -225 c20 -11 50 -33 67
-50 34 -36 30 -51 -25 -88 -46 -32 -61 -30 -54 6 5 23 2 32 -14 40 -30 16 -67
14 -83 -5 -18 -22 -1 -46 47 -62 117 -41 164 -78 164 -130 0 -55 -63 -123
-142 -156 -35 -15 -38 -15 -110 22 -40 20 -74 44 -76 52 -1 8 11 32 28 52 l31
38 33 -35 c24 -26 42 -35 65 -35 29 0 71 29 71 49 0 17 -31 41 -53 41 -41 0
-126 48 -147 82 -40 63 -8 142 74 182 42 21 79 20 124 -3z m400 4 c86 -36 121
-101 122 -220 0 -104 -13 -147 -55 -184 -99 -86 -227 -52 -274 73 -49 131 -35
237 38 296 67 52 107 60 169 35z m-1409 -73 c101 -6 126 -10 135 -24 8 -13 6
-24 -10 -45 -16 -22 -37 -32 -95 -46 -41 -10 -81 -25 -90 -33 -8 -8 -21 -14
-27 -14 -15 0 -15 -13 0 -28 9 -9 2 -22 -35 -55 -44 -41 -100 -67 -145 -67
-21 0 -91 31 -92 40 0 3 20 18 45 33 32 21 45 35 45 52 0 13 4 26 10 30 19 12
-3 34 -47 49 -51 18 -83 42 -83 63 0 8 12 25 26 40 25 25 27 25 132 18 59 -3
163 -9 231 -13z"/>
<path d="M8905 6807 c-54 -54 -44 -105 28 -138 75 -34 78 -32 75 74 l-3 92
-33 3 c-26 3 -39 -3 -67 -31z"/>
<path d="M9126 6462 c-8 -52 -7 -190 2 -195 4 -3 26 4 49 15 50 24 83 71 83
121 0 41 -17 56 -86 81 l-42 14 -6 -36z"/>
<path d="M8473 5560 c0 -25 2 -35 4 -22 2 12 2 32 0 45 -2 12 -4 2 -4 -23z"/>
<path d="M7701 5511 c-17 -31 -13 -41 15 -41 22 0 25 4 22 27 -4 33 -23 41
-37 14z"/>
<path d="M8120 5541 c0 -28 3 -31 29 -31 31 0 64 25 58 44 -2 6 -22 12 -45 14
-41 3 -42 2 -42 -27z"/>
<path d="M8835 5550 c-10 -16 15 -60 32 -60 20 0 53 19 53 30 0 6 -7 10 -15
10 -9 0 -26 7 -39 16 -18 11 -26 12 -31 4z"/>
<path d="M6490 4877 c0 -42 -1 -44 -40 -56 -54 -16 -96 -54 -115 -105 -15 -40
-15 -46 0 -82 26 -64 56 -87 156 -123 26 -9 26 -10 14 -67 -6 -32 -17 -60 -24
-62 -7 -2 -30 14 -51 37 -43 45 -91 56 -109 24 -27 -48 72 -153 145 -153 27 0
27 0 21 -56 -5 -47 -3 -55 9 -50 9 3 29 6 45 6 28 0 29 1 29 50 0 39 3 48 14
44 29 -11 113 54 142 108 19 36 18 108 -2 136 -17 25 -69 54 -129 72 l-40 12
3 59 c3 51 7 59 23 59 11 0 31 -11 45 -25 14 -14 28 -25 32 -25 4 0 27 20 51
44 l43 44 -63 31 c-34 17 -75 31 -91 31 -27 0 -28 2 -28 45 l0 45 -40 0 -40 0
0 -43z m10 -202 c0 -59 -4 -63 -38 -39 -26 18 -28 50 -5 76 30 33 43 23 43
-37z m108 -201 c12 -8 22 -21 22 -28 0 -17 -48 -76 -61 -76 -5 0 -9 21 -9 46
0 25 -5 54 -11 66 -10 18 -8 19 13 13 12 -4 33 -13 46 -21z"/>
<path d="M7768 4878 c-3 -39 -5 -42 -49 -54 -31 -9 -59 -27 -83 -54 -30 -34
-36 -47 -36 -86 0 -81 33 -119 134 -155 28 -9 51 -22 50 -28 -1 -6 -2 -33 -2
-61 -2 -47 -4 -50 -29 -50 -17 0 -38 13 -62 38 -32 34 -40 37 -64 29 -30 -10
-46 -50 -30 -76 22 -34 106 -85 141 -85 l34 0 -6 -53 -6 -53 39 0 40 0 3 53
c3 45 6 52 25 55 37 5 121 89 133 131 23 85 -28 150 -135 174 -34 8 -54 16
-47 21 7 4 12 30 12 62 0 60 7 65 52 33 25 -18 33 -20 51 -10 26 14 81 61 76
64 -19 12 -128 57 -144 59 -16 3 -19 10 -17 40 2 30 -1 37 -20 42 -49 13 -57
8 -60 -36z m2 -152 c0 -7 3 -35 7 -61 6 -46 6 -47 -18 -40 -61 19 -75 61 -33
94 31 24 44 26 44 7z m108 -242 c12 -8 22 -23 22 -33 0 -17 -56 -79 -64 -70
-2 2 -7 30 -10 62 -7 51 -6 57 11 57 10 0 29 -7 41 -16z"/>
<path d="M9055 4911 c-3 -2 -5 -19 -5 -37 0 -30 -4 -34 -49 -49 -32 -10 -62
-30 -85 -56 -32 -35 -36 -45 -36 -93 0 -44 5 -60 26 -86 34 -40 64 -55 165
-81 133 -34 156 -59 101 -112 -38 -37 -48 -34 -58 15 -12 55 -28 58 -43 8 -15
-52 -38 -52 -95 0 -24 22 -50 40 -59 40 -55 0 -61 -37 -16 -98 36 -49 74 -72
119 -72 30 0 30 -1 30 -53 l0 -54 42 1 42 1 -3 48 c-2 44 -1 47 22 47 31 0
115 74 133 117 23 53 18 107 -13 144 -34 40 -67 54 -166 69 -118 19 -159 64
-101 109 43 34 54 28 54 -28 0 -37 4 -50 17 -55 24 -10 45 22 41 62 -5 37 9
41 56 17 40 -21 48 -19 86 20 33 34 33 35 14 50 -20 15 -117 55 -134 55 -6 0
-10 15 -10 34 0 31 -3 34 -35 38 -20 2 -38 2 -40 -1z"/>
<path d="M7444 3652 l-41 -3 -7 -192 c-4 -106 -9 -206 -12 -224 l-6 -31 384 0
c212 0 401 -4 421 -7 l37 -7 0 233 0 234 -368 0 c-202 0 -386 -1 -408 -3z
m682 -87 c-3 -11 -6 -79 -6 -151 0 -105 -3 -133 -14 -137 -8 -3 -153 -3 -321
0 l-307 6 5 151 c3 83 6 152 6 154 1 1 145 1 322 0 314 -3 320 -3 315 -23z"/>
<path d="M7754 3506 c-58 -57 -58 -86 -2 -143 23 -24 46 -43 52 -43 17 0 116
82 116 97 0 8 -20 38 -45 65 -25 28 -45 54 -45 59 0 22 -36 5 -76 -35z"/>
<path d="M7540 3510 c-19 -36 -9 -63 28 -71 49 -10 50 -17 4 -36 -33 -12 -42
-21 -42 -40 0 -32 25 -39 66 -20 44 21 51 52 28 125 -16 49 -23 57 -46 60 -19
2 -30 -3 -38 -18z"/>
<path d="M7997 3502 c-14 -16 -17 -34 -15 -88 l3 -69 45 0 c44 0 45 1 48 35
l3 35 -46 -3 c-25 -2 -45 0 -45 5 0 12 45 33 71 33 17 0 20 6 17 33 -3 28 -7
32 -34 35 -20 2 -36 -4 -47 -16z"/>
<path d="M8995 3650 c-27 -4 -93 -9 -146 -9 l-96 -1 -1 -112 c-1 -62 -4 -156
-8 -209 l-6 -97 108 -6 c60 -3 138 -11 174 -16 44 -7 93 -7 150 0 47 5 123 10
170 10 47 0 90 4 97 8 9 5 9 27 1 87 -12 99 -6 291 10 307 26 26 34 25 -323
43 -44 2 -102 0 -130 -5z m225 -87 l123 -6 -6 -91 c-7 -117 -21 -164 -52 -176
-51 -19 -226 -23 -319 -6 -49 8 -94 20 -100 26 -15 14 -21 219 -8 232 23 23
171 32 362 21z"/>
<path d="M8959 3479 c-26 -26 -21 -41 19 -51 41 -11 51 -28 15 -28 -15 0 -35
-5 -43 -10 -13 -8 -12 -12 7 -31 19 -19 31 -21 119 -20 106 2 140 12 128 39
-4 9 -7 29 -6 44 1 34 -3 37 -102 59 -103 23 -112 23 -137 -2z"/>
<path d="M6486 3718 c-4 -19 -13 -29 -33 -34 -55 -14 -118 -60 -142 -103 -50
-90 -33 -235 40 -338 16 -23 29 -46 29 -52 0 -6 9 -11 20 -11 11 0 28 -9 37
-20 14 -16 30 -20 80 -20 46 0 63 4 63 13 0 9 14 14 41 15 22 1 48 6 57 11 10
5 37 53 61 108 58 128 62 197 15 288 -24 48 -39 64 -75 82 -24 12 -56 25 -71
28 -20 4 -27 12 -30 33 -3 24 -7 27 -45 28 -37 0 -42 -2 -47 -28z"/>
<path d="M6498 2633 c-3 -33 -7 -39 -38 -48 -76 -22 -120 -70 -120 -132 0 -38
71 -121 138 -160 35 -21 42 -30 38 -47 -3 -12 -6 -31 -6 -43 0 -35 -33 -29
-69 13 -26 29 -39 36 -74 37 -41 2 -42 1 -45 -31 -3 -28 3 -40 37 -72 23 -22
63 -47 91 -57 47 -17 49 -19 52 -58 3 -34 7 -41 27 -43 28 -4 41 12 41 51 0
15 4 27 9 27 5 0 37 17 72 37 56 33 99 81 99 109 0 6 -18 35 -41 65 -22 30
-43 66 -46 81 -7 34 -48 48 -144 48 -81 0 -101 15 -75 56 25 38 65 30 82 -16
11 -31 13 -32 13 -10 2 53 20 58 112 35 22 -6 29 -2 48 28 11 19 21 39 21 44
0 13 -64 41 -112 49 -35 6 -38 9 -38 40 0 32 -2 34 -34 34 -33 0 -35 -2 -38
-37z m130 -365 c30 -30 0 -78 -48 -78 -20 0 -29 6 -34 23 -8 31 -8 34 10 51
18 19 55 21 72 4z"/>
<path d="M7434 2545 c-3 -7 -1 -22 5 -33 9 -16 26 -20 132 -25 67 -4 227 -7
356 -7 224 0 233 -1 233 -19 0 -11 -9 -36 -21 -55 -18 -31 -20 -45 -14 -114 7
-77 7 -79 -16 -85 -41 -11 -627 -8 -634 3 -11 17 -24 11 -40 -20 -32 -63 -54
-59 381 -62 l396 -3 -7 66 c-7 68 -9 308 -3 344 3 20 -3 20 -380 22 -318 2
-384 0 -388 -12z"/>
<path d="M7738 2409 c-42 -27 -48 -36 -48 -65 0 -25 9 -44 34 -72 31 -34 39
-37 86 -37 50 0 54 2 91 45 37 43 51 80 29 80 -5 0 -10 6 -10 14 0 8 -14 26
-31 40 -43 36 -91 34 -151 -5z"/>
<path d="M7506 2388 c-19 -27 -21 -82 -3 -95 6 -6 31 -11 55 -12 l42 -1 0 59
c0 44 -4 60 -16 65 -31 12 -63 6 -78 -16z"/>
<path d="M8012 2401 c-9 -5 -12 -25 -10 -62 l3 -54 37 -3 c30 -3 39 1 49 20
16 30 18 68 5 91 -11 18 -61 23 -84 8z"/>
<path d="M8848 2541 c-55 -35 -68 -56 -68 -108 0 -65 74 -143 135 -143 29 0
65 -28 65 -50 0 -21 -44 -60 -67 -60 -9 0 -31 17 -50 37 -33 37 -35 37 -61 23
-15 -9 -28 -23 -30 -31 -7 -36 86 -109 138 -109 35 0 97 38 127 76 58 76 23
156 -81 190 -70 23 -96 40 -96 67 0 55 73 66 112 18 l23 -29 38 33 c22 19 36
39 32 45 -13 21 -111 70 -141 70 -16 0 -51 -13 -76 -29z"/>
<path d="M9148 2545 c0 -11 0 -27 0 -35 1 -8 -3 -107 -9 -219 -5 -112 -8 -205
-5 -208 3 -3 26 -2 51 1 l45 7 0 100 0 99 71 0 c63 0 71 -2 76 -21 8 -30 45
-20 62 16 24 48 26 146 6 190 -31 64 -74 83 -193 87 -96 3 -102 2 -104 -17z
m206 -87 c19 -27 21 -69 4 -86 -7 -7 -38 -12 -70 -12 l-58 0 0 60 0 60 54 0
c45 0 58 -4 70 -22z"/>
<path d="M6490 1476 c0 -21 -6 -25 -42 -31 -60 -10 -117 -74 -117 -130 -1 -22
3 -45 7 -51 7 -11 83 -40 90 -35 2 2 16 -8 30 -22 58 -54 84 -54 140 -4 30 28
28 63 -7 98 -37 37 -79 38 -119 4 -36 -30 -42 -31 -42 -6 0 22 42 59 78 68 13
3 56 0 95 -7 68 -13 70 -13 88 9 11 13 19 36 19 52 l0 29 -68 0 c-60 0 -71 3
-92 25 -31 33 -60 33 -60 1z"/>
<path d="M6376 1153 c-7 -16 -17 -43 -21 -60 -6 -31 -5 -33 23 -33 66 0 93
-12 118 -51 13 -22 28 -39 32 -39 5 0 15 15 23 33 12 28 21 33 77 45 l62 14
-2 51 c-3 48 -5 52 -30 55 -15 2 -41 -4 -59 -14 -67 -34 -84 -34 -134 -3 -57
36 -71 36 -89 2z"/>
<path d="M9264 1380 c-36 -14 -54 -50 -54 -108 0 -118 73 -187 135 -126 23 23
21 185 -2 212 -22 25 -51 33 -79 22z"/>
<path d="M2705 7406 c-18 -13 -18 -15 -3 -21 9 -4 19 -13 22 -20 6 -16 -48
-75 -68 -75 -7 0 -27 -11 -46 -25 l-34 -25 42 0 c53 0 85 -15 105 -50 23 -38
21 -54 -7 -87 -20 -23 -26 -25 -40 -14 -9 7 -45 16 -81 19 -71 5 -90 18 -83
57 8 38 -5 30 -52 -30 -55 -71 -104 -115 -168 -150 -76 -41 -78 -75 -7 -151
14 -15 25 -33 25 -40 0 -7 3 -19 6 -27 7 -19 -43 -37 -102 -37 -47 0 -66 14
-113 85 -14 22 -39 53 -54 69 -15 16 -27 40 -27 52 0 20 -5 24 -30 24 -16 0
-30 5 -30 11 0 7 -11 9 -30 5 -28 -5 -30 -4 -20 14 6 12 7 20 1 20 -15 0 -53
-68 -45 -81 4 -7 3 -9 -3 -6 -5 3 -17 -18 -26 -47 -14 -44 -17 -99 -17 -328 0
-208 -4 -296 -16 -358 -38 -201 -157 -442 -309 -625 -52 -63 -105 -144 -105
-162 0 -21 26 -15 108 26 126 63 263 198 501 489 73 90 185 220 249 289 65 69
146 158 181 197 35 39 164 175 287 301 285 295 385 417 386 474 2 60 -76 140
-187 194 -88 43 -178 57 -210 33z m-60 -546 c9 -10 15 -26 12 -35 -8 -19 -56
-20 -81 -2 -15 11 -17 17 -7 35 15 28 52 29 76 2z m-584 -44 c21 -46 -21 -126
-66 -126 -27 0 -65 43 -65 74 1 63 107 105 131 52z"/>
<path d="M3182 7103 c-11 -16 -22 -37 -26 -49 -8 -28 -83 -124 -155 -199 -31
-33 -108 -118 -171 -190 -63 -71 -168 -186 -235 -255 -166 -173 -272 -291
-480 -535 -99 -115 -242 -274 -318 -352 -138 -140 -177 -169 -277 -203 -199
-67 -248 -86 -267 -103 -33 -29 -71 -119 -106 -247 -31 -112 -32 -121 -32
-325 1 -160 5 -230 18 -294 16 -79 58 -191 72 -191 3 0 25 42 49 93 56 119
131 213 461 577 78 85 221 245 318 355 97 110 243 272 323 360 80 88 198 221
262 295 64 74 173 194 243 265 192 198 187 191 199 275 6 40 19 107 29 149 11
42 22 98 26 125 4 27 12 57 18 67 18 29 58 23 91 -11 25 -27 27 -36 22 -73 -4
-23 -18 -67 -32 -97 -41 -89 -41 -124 -1 -200 19 -36 40 -83 47 -105 14 -44
86 -219 126 -305 15 -30 48 -85 75 -121 27 -37 49 -71 49 -76 0 -19 29 -35 50
-28 29 9 70 74 70 110 0 16 -11 71 -24 121 -14 50 -32 140 -40 200 -28 202
-86 531 -100 570 -33 93 -170 346 -212 391 -38 40 -47 41 -72 6z m-894 -1380
c-4 -22 -22 -20 -26 1 -2 10 3 16 13 16 10 0 15 -7 13 -17z m-573 -523 c23
-25 33 -123 15 -145 -15 -18 -76 -20 -86 -3 -4 6 -8 42 -10 79 -3 56 0 70 14
78 26 16 47 13 67 -9z"/>
<path d="M3091 6229 c-18 -24 -94 -115 -169 -202 -75 -86 -175 -202 -222 -256
-47 -54 -173 -195 -280 -312 -108 -118 -227 -250 -264 -294 -76 -89 -307 -343
-431 -475 -117 -124 -305 -362 -305 -386 0 -7 19 -18 43 -24 68 -17 127 -41
127 -51 0 -5 -11 -14 -24 -20 -18 -9 -37 -7 -79 5 -30 9 -64 16 -75 16 -21 0
-116 -109 -146 -168 l-17 -33 56 -78 c31 -43 72 -93 91 -112 l34 -33 76 74
c41 41 114 120 162 175 138 158 338 382 457 511 121 132 300 330 451 499 143
161 429 471 499 540 l60 61 -32 28 c-48 41 -49 70 -8 251 40 178 53 283 38
310 -9 16 -14 13 -42 -26z m-897 -1305 c3 -8 2 -12 -4 -9 -6 3 -10 10 -10 16
0 14 7 11 14 -7z m-390 -346 c3 -16 2 -28 -3 -28 -10 0 -21 47 -13 55 7 7 8 5
16 -27z"/>
<path d="M3210 5993 c-31 -100 -37 -176 -16 -208 9 -14 49 -41 89 -61 39 -20
92 -53 115 -72 35 -28 47 -34 60 -25 30 18 24 39 -26 99 -27 32 -80 121 -117
197 -38 75 -72 137 -77 137 -4 0 -17 -30 -28 -67z"/>
<path d="M3535 3971 c-126 -44 -393 -169 -414 -195 -8 -9 -43 -33 -77 -52 -52
-29 -84 -60 -175 -167 -101 -120 -146 -183 -137 -192 7 -8 190 36 273 65 199
71 358 172 493 314 78 82 109 127 136 196 10 25 20 51 23 58 7 17 2 16 -122
-27z"/>
<path d="M4509 2473 l-24 -28 28 24 c25 23 32 31 24 31 -2 0 -14 -12 -28 -27z"/>
<path d="M4439 2403 c-13 -16 -12 -17 4 -4 16 13 21 21 13 21 -2 0 -10 -8 -17
-17z"/>
<path d="M965 2380 c10 -11 20 -20 23 -20 3 0 -3 9 -13 20 -10 11 -20 20 -23
20 -3 0 3 -9 13 -20z"/>
<path d="M783 1263 c-4 -10 -1 -19 6 -21 11 -4 11 -6 0 -13 -9 -6 -2 -7 19 -3
25 5 32 3 32 -10 0 -9 -4 -16 -9 -16 -5 0 -14 -13 -20 -30 -8 -24 -16 -30 -39
-30 -21 0 -44 -14 -83 -50 -30 -28 -70 -55 -90 -60 -20 -6 -60 -29 -89 -52
l-52 -42 33 -28 c51 -42 111 -68 156 -68 37 0 46 5 88 52 32 35 45 58 41 71
-2 10 -2 16 1 13 4 -3 17 1 31 10 13 8 26 13 29 10 18 -17 -70 -149 -128 -192
-52 -39 -106 -30 -221 36 -51 30 -104 62 -118 72 -14 10 -46 22 -72 26 -47 9
-52 6 -56 -32 0 -5 -5 -12 -10 -15 -13 -9 -27 -55 -14 -47 7 4 15 -11 22 -36
31 -121 66 -191 119 -242 22 -21 43 -30 78 -33 l48 -5 35 51 c41 61 92 97 155
111 140 31 285 -93 285 -244 0 -70 -82 -179 -151 -201 -10 -4 -19 -13 -19 -20
0 -23 -46 -120 -79 -169 -17 -25 -31 -47 -31 -50 0 -3 50 -6 111 -6 l110 0 19
43 c10 23 30 57 44 76 19 26 26 47 26 82 0 61 13 94 51 130 l31 29 -33 27
c-17 16 -38 32 -45 36 -14 8 -20 37 -7 37 3 0 34 -16 69 -35 34 -19 68 -35 76
-35 8 0 35 36 60 80 l47 80 -32 23 c-18 13 -48 30 -67 37 -51 19 -59 30 -21
30 27 0 151 -61 151 -75 0 -2 -22 -46 -49 -98 -27 -53 -47 -98 -43 -101 3 -3
21 -6 39 -6 28 0 43 9 83 49 90 94 133 247 96 348 -7 21 -19 58 -27 83 -16 56
-63 152 -81 168 -9 7 -29 9 -52 5 -31 -5 -41 -12 -51 -37 -7 -17 -28 -44 -45
-61 -18 -16 -54 -56 -81 -87 l-50 -57 31 -49 c16 -27 30 -52 30 -55 0 -3 -21
6 -47 21 l-46 26 -40 -22 c-22 -12 -42 -21 -43 -19 -5 5 75 123 135 202 67 87
133 219 129 259 -4 42 -136 110 -254 131 -108 19 -113 19 -121 -2z"/>
<path d="M2411 1265 c-41 -8 -77 -17 -80 -22 -3 -4 -12 -8 -18 -9 -29 -2 -33
-5 -33 -20 0 -10 -6 -13 -17 -10 -10 3 -25 1 -33 -4 -13 -9 -13 -11 0 -20 12
-8 10 -10 -10 -11 -17 -1 -12 -4 15 -9 22 -4 46 -6 55 -4 8 3 0 -3 -18 -11
-18 -8 -56 -40 -85 -70 -28 -30 -59 -55 -68 -55 -12 0 -16 -8 -15 -25 1 -26
28 -45 34 -25 10 28 58 64 198 148 160 96 200 111 197 77 -1 -11 -12 -28 -25
-38 -75 -58 -129 -93 -211 -138 -51 -28 -96 -55 -102 -60 -6 -7 4 -22 30 -45
81 -70 155 -92 202 -59 13 9 39 45 58 80 32 56 66 87 81 72 10 -9 -49 -118
-87 -161 -50 -57 -94 -72 -156 -56 -26 6 -59 20 -74 31 -62 44 -157 92 -194
100 -22 4 -50 10 -62 12 -27 7 -48 -19 -64 -77 -9 -33 -8 -42 5 -52 9 -6 25
-36 35 -66 48 -141 111 -208 194 -208 31 0 39 6 66 49 50 78 110 111 201 111
106 0 196 -67 231 -172 7 -21 17 -38 24 -38 6 0 44 -20 85 -45 41 -24 80 -45
86 -45 5 0 25 37 43 82 l34 82 -27 23 c-15 13 -34 23 -42 23 -8 0 -14 5 -14
10 0 6 4 10 8 10 20 0 112 -31 117 -40 7 -12 -48 -143 -75 -177 -27 -35 -25
-43 11 -43 100 0 219 156 219 287 0 72 -58 270 -101 348 -54 98 -75 123 -90
108 -8 -8 -5 -15 15 -28 35 -23 36 -65 1 -65 -20 0 -26 -7 -35 -39 -6 -22 -24
-52 -43 -68 -17 -16 -56 -55 -85 -88 -45 -49 -53 -63 -48 -86 5 -27 4 -28 -20
-17 -23 11 -29 7 -74 -37 -28 -27 -50 -45 -50 -39 0 15 95 158 168 254 71 92
88 133 93 225 l4 60 -70 37 c-126 66 -230 81 -384 53z"/>
<path d="M4277 1274 c-13 -4 -17 -14 -16 -37 5 -73 0 -86 -38 -106 -21 -11
-49 -30 -63 -43 -14 -13 -60 -43 -102 -67 -43 -25 -87 -54 -97 -65 l-20 -21
59 -48 c98 -80 152 -74 229 27 42 54 88 93 98 82 11 -10 -54 -111 -104 -162
l-53 -54 -64 0 c-63 0 -65 1 -177 76 -63 42 -127 80 -143 85 -33 10 -79 2 -70
-12 3 -5 1 -9 -4 -9 -6 0 -13 -12 -17 -27 -4 -19 -2 -29 9 -35 11 -6 16 -24
16 -56 0 -82 52 -196 111 -247 23 -18 42 -25 74 -25 42 0 46 3 89 59 76 98
158 123 270 81 67 -26 106 -67 137 -149 17 -43 28 -60 38 -56 8 3 45 -13 83
-36 38 -23 72 -38 76 -33 4 5 23 41 42 81 38 83 34 100 -28 105 -32 3 -40 9
-59 46 -12 23 -18 42 -13 42 6 0 10 -4 10 -9 0 -5 17 -15 38 -21 44 -15 133
-63 129 -70 -2 -3 -13 -27 -25 -55 -12 -27 -33 -71 -47 -97 -21 -40 -22 -48
-10 -58 12 -10 21 -10 44 -1 42 18 129 107 140 144 5 18 17 50 25 72 19 51 20
126 2 169 -7 18 -17 53 -21 77 -12 74 -50 154 -106 223 -29 36 -54 64 -56 62
-2 -2 1 -15 7 -30 14 -39 12 -66 -5 -66 -8 0 -18 -12 -21 -26 -4 -15 -31 -54
-62 -88 -90 -100 -107 -125 -94 -138 19 -19 14 -28 -13 -28 -23 0 -60 -33
-100 -86 -17 -23 -29 -13 -20 16 4 12 47 81 95 154 98 147 117 183 150 275
l22 64 -23 18 c-13 10 -60 36 -104 58 -78 39 -171 58 -218 45z"/>
<path d="M536 1201 c-3 -5 -15 -7 -26 -4 -11 3 -28 2 -37 -1 -15 -6 -15 -8 -3
-17 11 -8 9 -9 -9 -4 -16 5 -21 4 -17 -4 4 -7 1 -9 -7 -5 -9 3 -30 -10 -51
-31 -39 -39 -44 -47 -22 -39 8 3 17 1 21 -5 8 -14 45 -14 45 -1 0 6 6 10 14
10 8 0 17 -15 20 -36 l7 -35 47 27 c26 15 73 46 106 68 32 23 70 49 85 58 38
26 10 22 -54 -8 -71 -32 -101 -30 -97 9 3 26 -11 37 -22 18z m-131 -91 c3 -5
-1 -10 -9 -10 -9 0 -16 5 -16 10 0 6 4 10 9 10 6 0 13 -4 16 -10z"/>
<path d="M3962 1195 c-13 -7 -23 -16 -24 -21 0 -5 -4 -8 -9 -6 -5 1 -9 -5 -9
-13 0 -8 9 -15 20 -15 11 0 20 5 20 10 0 6 18 10 40 10 33 0 40 3 40 20 0 11
-6 20 -14 20 -8 0 -20 2 -28 4 -7 2 -23 -2 -36 -9z"/>
<path d="M2140 1150 c-9 -6 -10 -10 -3 -10 6 0 15 5 18 10 8 12 4 12 -15 0z"/>
<path d="M4080 1146 c0 -9 -8 -16 -21 -16 -11 0 -17 -4 -14 -10 3 -5 0 -7 -9
-4 -8 3 -19 -3 -26 -15 -9 -18 -8 -21 9 -21 11 0 23 5 27 11 3 6 19 19 35 28
26 16 28 20 14 31 -12 10 -15 10 -15 -4z"/>
<path d="M3820 1110 c0 -5 5 -10 10 -10 6 0 10 5 10 10 0 6 -4 10 -10 10 -5 0
-10 -4 -10 -10z"/>
<path d="M3975 1060 c-3 -5 -2 -10 4 -10 5 0 13 5 16 10 3 6 2 10 -4 10 -5 0
-13 -4 -16 -10z"/>
<path d="M443 1025 c-3 -9 -3 -18 -1 -21 3 -3 8 4 11 16 6 23 -1 27 -10 5z"/>
<path d="M3930 1031 c0 -5 -15 -16 -32 -25 -18 -8 -26 -16 -18 -16 13 0 13 -1
0 -10 -8 -5 -11 -12 -7 -16 4 -4 25 11 46 34 23 25 34 42 25 42 -8 0 -14 -4
-14 -9z"/>
<path d="M379 980 c30 -26 51 -26 51 0 0 11 -4 20 -10 20 -5 0 -10 -6 -10 -12
0 -8 -3 -9 -8 -3 -4 6 -16 11 -27 13 -18 2 -18 1 4 -18z"/>
<path d="M3666 775 c-3 -9 -10 -100 -16 -203 -12 -209 -23 -282 -51 -354 -10
-27 -19 -51 -19 -54 0 -10 58 11 155 57 108 51 156 92 195 168 34 67 25 81
-49 81 -87 0 -155 88 -187 241 -17 82 -19 87 -28 64z"/>
<path d="M195 707 c-3 -17 -6 -70 -5 -117 1 -122 -15 -259 -41 -340 -13 -38
-20 -73 -16 -77 4 -4 31 4 60 16 28 13 79 34 113 47 51 21 69 36 119 96 81
100 82 138 4 138 -36 0 -88 31 -122 73 -22 27 -87 157 -87 174 0 27 -18 20
-25 -10z"/>
<path d="M1907 553 c-6 -176 -19 -262 -51 -337 -28 -67 -19 -71 70 -27 32 17
82 39 109 51 64 27 92 54 120 113 13 26 27 47 31 45 5 -2 10 11 12 28 3 31 2
32 -45 39 -99 13 -171 81 -208 197 -10 29 -21 57 -25 61 -4 5 -10 -72 -13
-170z"/>
<path d="M694 588 c-36 -9 -91 -66 -100 -104 -10 -38 11 -96 46 -129 23 -22
41 -29 83 -33 52 -4 56 -2 95 35 38 36 42 44 42 90 0 61 -43 129 -87 139 -16
3 -32 7 -38 8 -5 2 -24 -1 -41 -6z"/>
<path d="M2380 582 c-41 -22 -80 -84 -80 -128 0 -17 10 -46 23 -65 78 -118
247 -69 251 73 2 92 -114 163 -194 120z"/>
<path d="M4099 551 c-35 -34 -39 -44 -39 -87 0 -61 25 -105 73 -127 61 -29
111 -16 161 43 65 78 -4 210 -111 210 -39 0 -50 -5 -84 -39z"/>
<path d="M4417 422 c-10 -45 -69 -124 -119 -156 -26 -17 -47 -36 -47 -43 -2
-30 -36 -111 -67 -157 -19 -28 -34 -54 -34 -58 0 -5 47 -8 104 -8 101 0 104 1
110 24 3 13 24 50 46 83 34 51 40 69 40 112 0 56 15 95 49 125 24 22 20 29
-39 76 l-38 30 -5 -28z"/>
<path d="M2670 423 c0 -48 -123 -183 -167 -183 -9 0 -13 -6 -10 -13 7 -19 -32
-113 -71 -169 -18 -26 -32 -49 -32 -52 0 -3 49 -6 109 -6 96 0 110 2 115 18 3
9 23 42 43 72 34 51 37 61 37 127 1 70 2 73 39 111 l39 39 -45 37 c-50 41 -57
43 -57 19z"/>
<path d="M1362 368 c-23 -24 -68 -54 -100 -67 -31 -14 -58 -25 -60 -26 -8 -6
23 -112 43 -147 l23 -40 26 34 c51 67 139 288 114 288 -2 0 -23 -19 -46 -42z"/>
<path d="M4820 375 c-14 -15 -55 -45 -92 -66 -59 -35 -68 -44 -68 -69 0 -34
38 -140 49 -140 27 0 144 233 139 275 l-3 27 -25 -27z"/>
<path d="M3046 339 c-32 -22 -78 -44 -101 -50 l-42 -11 8 -46 c9 -51 38 -122
49 -122 25 0 154 217 148 250 -3 17 -9 15 -62 -21z"/>
<path d="M486 299 c-19 -23 -64 -99 -99 -170 l-65 -129 142 0 141 0 73 112 73
112 -53 11 c-63 13 -102 33 -145 74 l-32 31 -35 -41z"/>
<path d="M3948 292 c-19 -26 -41 -58 -49 -72 -17 -27 -89 -201 -89 -213 0 -4
61 -7 135 -7 88 0 135 4 135 11 0 5 13 27 29 47 16 20 45 67 64 104 l35 66
-37 7 c-50 9 -131 48 -162 78 l-26 25 -35 -46z"/>
<path d="M2173 252 c-29 -42 -58 -93 -64 -112 -6 -19 -21 -55 -32 -80 -12 -25
-23 -48 -25 -52 -2 -5 55 -8 126 -8 l130 0 40 53 c22 28 56 81 76 117 l35 65
-36 3 c-43 3 -111 32 -156 66 -19 14 -36 26 -38 26 -2 0 -28 -35 -56 -78z"/>
<path d="M2780 290 c-24 -24 -26 -60 -4 -102 10 -19 14 -44 11 -63 -8 -46 9
-68 23 -30 29 79 39 113 44 152 5 35 3 44 -13 53 -28 14 -38 13 -61 -10z"/>
<path d="M4525 285 c-28 -27 -30 -44 -13 -92 11 -31 9 -40 -25 -108 -20 -42
-37 -78 -37 -80 0 -3 10 -5 23 -5 20 0 22 5 22 45 0 83 41 78 67 -7 9 -32 15
-38 39 -38 55 0 76 68 39 128 -25 41 -36 41 -46 0 -4 -18 -9 -28 -11 -21 -2 6
3 28 11 48 24 57 21 120 -6 139 -30 21 -35 20 -63 -9z"/>
<path d="M1071 281 c-24 -24 -27 -69 -8 -95 12 -16 10 -29 -15 -89 -16 -39
-34 -77 -40 -84 -8 -10 -5 -13 16 -13 20 0 26 5 26 23 0 46 12 68 34 65 16 -2
23 -14 31 -46 9 -43 9 -43 49 -40 31 2 44 9 55 29 13 23 12 30 -9 72 -13 26
-28 46 -34 44 -5 -2 -16 -22 -25 -45 -8 -23 -19 -42 -24 -42 -9 0 -8 2 19 92
24 78 12 142 -28 146 -17 2 -34 -4 -47 -17z"/>
<path d="M265 158 c-169 -72 -173 -75 -190 -113 -8 -21 -15 -39 -15 -41 0 -2
42 -4 93 -4 l92 0 26 43 c39 61 81 147 72 146 -5 -1 -39 -14 -78 -31z"/>
<path d="M1929 124 c-112 -48 -127 -58 -142 -89 l-17 -35 99 0 99 0 47 83 c26
45 50 85 52 90 7 12 -8 7 -138 -49z"/>
<path d="M2842 127 c-11 -25 -23 -54 -27 -66 -7 -23 10 -61 27 -61 22 0 78 51
78 71 0 24 -23 71 -44 88 -12 10 -18 5 -34 -32z"/>
<path d="M3780 163 c-161 -58 -216 -85 -237 -116 -13 -18 -23 -36 -23 -40 0
-4 48 -7 108 -6 l107 0 41 85 c38 80 39 90 4 77z"/>
<path d="M2700 25 l-23 -25 31 0 c32 0 40 12 24 38 -6 9 -14 6 -32 -13z"/>
</g>
</svg>
